PathFileType	4	(X/Y/Z)	pose_F01_0-87.trc
DataRate	CameraRate	NumFrames	NumMarkers	Units	OrigDataRate	OrigDataStartFrame	OrigNumFrames
30	30	8	21	m	30	74	87
Frame#	Time	CHip			RHip			RKnee			RAnkle			RBigToe			RSmallToe			RHeel			LHip			LKnee			LAnkle			LBigToe			LSmallToe			LHeel			Neck			Nose			RShoulder			RElbow			RWrist			LShoulder			LElbow			LWrist			
		X1	Y1	Z1	X2	Y2	Z2	X3	Y3	Z3	X4	Y4	Z4	X5	Y5	Z5	X6	Y6	Z6	X7	Y7	Z7	X8	Y8	Z8	X9	Y9	Z9	X10	Y10	Z10	X11	Y11	Z11	X12	Y12	Z12	X13	Y13	Z13	X14	Y14	Z14	X15	Y15	Z15	X16	Y16	Z16	X17	Y17	Z17	X18	Y18	Z18	X19	Y19	Z19	X20	Y20	Z20	X21	Y21	Z21	
74	2.466666666666667	-0.21490362124769222	1.8907268562902642	-0.39019825648729467	-0.22421930665149065	1.888862986454014	-0.3287920015113074	-0.22701637346436765	1.7534463953740382	-0.3030867972908223													-0.20077913080507828	1.8935864849021664	-0.447525913781205	-0.1925230389610347	1.7647721450879865	-0.47555051334506687	-0.1789158870049058	1.6353259429639408	-0.5022706216112556	-0.18624494854357307	1.6065588000212578	-0.5445077531887387	-0.17510534513354245	1.6136959626267486	-0.5660317208935418	-0.19650784384796494	1.6069735217513559	-0.46216862644735907	-0.20791871530656755	2.0382140137936333	-0.38774453757319666	-0.2139214677488758	2.101795609220293	-0.42544418674387374	-0.21823680244759824	2.038711789223384	-0.30941554462918036	-0.2470811514383244	2.009255654912344	-0.3417433733223685	-0.23268050679209143	2.065025617393148	-0.3916637456371609	-0.19101784795690463	2.0369063273668764	-0.458640874376815	-0.2021383767026082	1.9980119841326385	-0.5211193531205589	-0.21123085627521312	2.056129513717333	-0.47726122262465254
75	2.5	-0.2122284775371691	1.8892880867049786	-0.39786395779523925	-0.22281010657247607	1.887345184535877	-0.33983157234160305	-0.22699218846943356	1.753711365215446	-0.30495185628925053													-0.19587955885488756	1.8954382102030185	-0.4579746077470443	-0.18935329280592827	1.7639662915081376	-0.48321043219052967	-0.17597047550871195	1.6348486458928144	-0.4832223101550521	-0.185685129809718	1.6077602056180837	-0.5367189861548723	-0.17303523404686533	1.6141759929538155	-0.5508656969629082	-0.19650784384796494	1.6069735217513559	-0.46216862644735907	-0.20516518325099017	2.0369486083014157	-0.3945476407368242	-0.212887388816927	2.102053624185633	-0.43010044214355503	-0.2192435028427738	2.033499601972804	-0.31094509544777377	-0.24096206997406713	2.002289228526645	-0.3602478339478845	-0.2299230633902713	2.0586038969895606	-0.4049195488045721	-0.18894528837189054	2.0386193635149215	-0.4694861474468944	-0.20028161022829546	1.9966010485384176	-0.5235111770838777	-0.21410397364014402	2.0565096089508916	-0.486624150970299
76	2.533333333333333	-0.2105726303000124	1.8903854642243758	-0.41803971265998935	-0.2221209915655338	1.8868891155554832	-0.35398875708010136	-0.22935092417585737	1.751461917036562	-0.32089308604519													-0.19767885725645995	1.8949130203245783	-0.48200042503611773	-0.1865374306704634	1.7628711977228175	-0.4819764972985473	-0.17807805984871491	1.635175005275078	-0.48078408988622007	-0.1841251051184936	1.6077698643178762	-0.5384603583091323	-0.17330631889120854	1.6161253473598882	-0.55099554811927	-0.19650784384796494	1.6069735217513559	-0.46216862644735907	-0.21039036110697742	2.0367587175438726	-0.4195405809878099	-0.21308165694117107	2.095780618812983	-0.4437536976175551	-0.2249489545794971	2.029995636693493	-0.33472985449144854	-0.23365481650133144	1.9722232774663122	-0.34661315320888614	-0.22651869731096402	2.0361828173537124	-0.4037953988782485	-0.1919353608749915	2.0458918264537407	-0.49973137087530994	-1.7304816770119513	1.8911986523831161	1.1679388918824831	-0.21728570024746868	2.0382218817981768	-0.500802011725281
77	2.566666666666667	-0.20837194062814207	1.890573845427884	-0.4290695996700171	-0.22015602671467555	1.8872163670503654	-0.36510151945151	-0.22786463299545212	1.7517914856427519	-0.3233133091670196													-0.19535072103825263	1.8943256501431431	-0.484373943022102	-0.18511735622002187	1.765713931935316	-0.4882087866051054	-0.17795970875261236	1.6348280084101674	-0.48085636248695757	-0.1840589361002515	1.6044433860093266	-0.5382673402017399	-0.17406391672153965	1.6124274813590942	-0.5539026052470165	-0.19650784384796494	1.6069735217513559	-0.46216862644735907	-0.20665527846557258	2.0319458124298895	-0.42324137819882285	-0.2141555651621513	2.0965982932691447	-0.4561933741648647	-0.21961961256661042	2.0267433880267096	-0.340989292707013	-0.2283159183437826	1.969406095564297	-0.3445082002749688	-0.2293152865791182	1.9977983440149434	-0.3896622138932276	-0.18966123185374903	2.0361519373403896	-0.506917207053665	-0.18779720839377467	1.9781184941688201	-0.5326327646065876	-0.21977189494983396	2.0196298710051357	-0.5136635499907645
78	2.6	-0.20332669917523977	1.8904125547658195	-0.4390080450084708	-0.21563086041594848	1.886271451918475	-0.383765326301762	-0.22637834181504687	1.7521210542489416	-0.3257335322888492													-0.1880177031727309	1.892135221315236	-0.49617012432200763	-0.18459770136737488	1.7592683123242523	-0.48781571402259694	-0.17730172997258092	1.6311118618888523	-0.4769234289420255	-0.18394830265550807	1.6043811214646118	-0.5383657176624229	-0.1711113944486897	1.612603007276038	-0.552885297580805	-0.19650784384796494	1.6069735217513559	-0.46216862644735907	-0.20198266971220688	2.028782155313666	-0.43261542773029504	-0.20929266665903423	2.0969956807940964	-0.4660342234415207	-0.21809786037348522	2.025769923061082	-0.3517650009245821	-0.2335391961687787	1.9538667816941901	-0.3331951273563065	-0.23211187584727236	1.9594138706761743	-0.3755290289082067	-0.18260024030582248	2.0339301330598105	-0.51863935840594	-0.17189510940976657	1.9721839576116384	-0.5406798628385179	-0.2051544691434497	1.9821104188404568	-0.5388771193885369
79	2.6333333333333333	-0.20111099064935276	1.885892167825621	-0.44043561641198686	-0.21335837396868956	1.8836927972662214	-0.38516446327787024	-0.22489205063464163	1.7524506228551315	-0.3281537554106788													-0.1838351407643326	1.8905197081056422	-0.500212901819934	-0.17808227901277515	1.755173241294802	-0.4946985374200785	-0.1750947232475083	1.6324881361613763	-0.4795844790061274	-0.18398677850202977	1.604356757971803	-0.5383767863037278	-0.17108120279745798	1.6123634417749801	-0.5528600720270488	-0.19650784384796494	1.6069735217513559	-0.46216862644735907	-0.20100418115446292	2.0288516732957738	-0.43803269893794206	-0.20450357987526824	2.0959004791387197	-0.47502767422370773	-0.22015941444765652	2.025908934744494	-0.35847348554274533	-0.2294203262154413	1.9501964834449215	-0.34291689198118136	-0.2349084651154265	1.9210293973374055	-0.3613958439231858	-0.18070023833437568	2.0328816438749326	-0.5211612046117925	-0.16866418166726563	1.9602153701392881	-0.5362928759022967	-0.19053704333706542	1.9445909666757777	-0.5640906887863092
80	2.6666666666666665	-0.2001098438091367	1.8856185227092415	-0.44590824057884565	-0.21262362032414095	1.8811679058218196	-0.3906474425437114	-0.2234057594542364	1.7527801914613215	-0.33057397853250836													-0.18402759578393724	1.8893083489230187	-0.5002483081404405	-0.17982183901025664	1.7530644437588954	-0.49238136413639394	-0.17702819235995454	1.6319992673898542	-0.4773770995902202	-0.18418749395383183	1.6056235344591365	-0.5380966581568657	-0.1709086638077965	1.6140716099891899	-0.5533799032265734	-0.19650784384796494	1.6069735217513559	-0.46216862644735907	-0.19717990995361617	2.0300489128710204	-0.4423991379756084	-0.2044722590329841	2.0961410038805366	-0.4834485294556293	-0.21839973833619908	2.027480795691211	-0.3691720108894181	-0.22892238490772707	1.9509954246435304	-0.3420800734696256	-0.2377050543835807	1.8826449239986365	-0.3472626589381649	-0.17873635588549824	2.0329326710693336	-0.5234226414538902	-0.17182546664284315	1.963010864192558	-0.5488837116181844	-0.17591961753068117	1.9070715145110988	-0.5893042581840816
81	2.7	-0.19841534454658732	1.888479273286713	-0.4486788703692458	-0.212917273526857	1.8855279530850002	-0.3915400198703638	-0.22191946827383116	1.7531097600675114	-0.33299420165433796													-0.1849737346307979	1.8910434087104055	-0.5036987988660673	-0.17891285611963606	1.7561936453152354	-0.48946178156842124	-0.1760337747663811	1.6325058200392866	-0.4827853657933208	-0.18518518269861112	1.6057291852585973	-0.5412888455112457	-0.1711721376600364	1.6127238160020887	-0.5529221732949824	-0.19650784384796494	1.6069735217513559	-0.46216862644735907	-0.1971546861365772	2.0300500646340183	-0.442515840370595	-0.20720877635298243	2.0966232084308736	-0.49292827228492947	-0.21835530689842492	2.027447382977808	-0.3692024440281764	-0.22969960036064038	1.948932388637428	-0.3361765611111223	-0.23412800554931087	1.8728848879173414	-0.326892762595964	-0.17954657616446923	2.033047503556667	-0.5264677206342598	-0.17078945060091696	1.9623644816040051	-0.55420163730178	-0.17303549637670948	1.8982713577932537	-0.5779739684384397
